<?xml version="1.0" standalone="no"?>
<!DOCTYPE svg PUBLIC "-//W3C//DTD SVG 20010904//EN"
 "http://www.w3.org/TR/2001/REC-SVG-20010904/DTD/svg10.dtd">
<svg version="1.0" xmlns="http://www.w3.org/2000/svg"
 width="1500.000000pt" height="1500.000000pt" viewBox="0 0 1500.000000 1500.000000"
 preserveAspectRatio="xMidYMid meet">
<metadata>
Created by potrace 1.14, written by Peter Selinger 2001-2017
</metadata>
<g transform="translate(0.000000,1500.000000) scale(0.100000,-0.100000)"
fill="#000000" stroke="none">
<path d="M0 12248 c0 -1514 3 -2763 6 -2775 4 -13 12 -23 19 -23 7 0 15 -9 18
-21 3 -12 10 -18 16 -14 7 3 11 -2 11 -14 0 -15 4 -19 17 -14 9 4 14 2 11 -3
-4 -5 0 -20 9 -34 8 -14 12 -17 9 -7 -3 11 -2 15 4 12 6 -3 10 -13 10 -20 0
-9 7 -12 17 -9 15 5 15 3 -2 -12 -13 -11 -15 -15 -5 -11 9 2 25 -2 35 -10 17
-14 18 -15 2 -9 -11 3 -16 2 -12 -4 3 -6 13 -10 21 -10 8 0 13 -4 10 -8 -3 -5
3 -14 14 -22 10 -7 16 -18 14 -25 -3 -7 4 -11 18 -11 17 1 22 -4 20 -18 -3
-14 1 -17 12 -13 14 6 21 -4 17 -25 0 -5 6 -8 14 -8 8 0 15 -7 15 -16 0 -8 5
-12 11 -9 6 4 13 -2 16 -14 3 -12 12 -21 19 -21 8 0 14 -7 14 -15 0 -8 7 -15
15 -15 8 0 15 -7 15 -15 0 -8 7 -15 15 -15 8 0 15 -9 15 -20 0 -12 7 -20 17
-20 15 0 14 -2 -3 -15 -16 -13 -16 -14 -2 -9 10 3 18 1 18 -4 0 -6 9 -9 20 -7
19 4 26 -10 21 -39 -1 -5 6 -3 15 5 16 12 17 12 12 -2 -8 -21 29 -62 48 -55 8
3 13 2 13 -2 -3 -20 2 -32 13 -29 7 1 13 -5 13 -13 0 -8 7 -14 15 -12 11 3 11
0 -1 -14 -12 -16 -12 -17 4 -11 13 5 17 1 17 -18 0 -16 6 -25 15 -25 8 0 15
-7 15 -16 0 -8 5 -12 11 -9 6 4 13 -2 16 -14 3 -12 13 -21 24 -21 11 0 19 -7
19 -15 0 -8 7 -15 15 -15 8 0 15 -7 15 -15 0 -8 7 -15 15 -15 8 0 15 -7 15
-15 0 -8 7 -15 15 -15 8 0 15 -6 15 -14 0 -7 9 -16 21 -19 12 -3 18 -10 14
-16 -3 -7 3 -11 15 -11 13 0 19 -4 14 -11 -3 -6 8 -24 25 -39 17 -16 31 -33
31 -37 0 -5 12 -10 26 -11 32 -2 46 -11 39 -23 -4 -5 -1 -9 4 -9 6 0 10 -6 9
-12 -2 -7 3 -12 10 -10 6 1 12 -3 12 -9 0 -5 4 -8 9 -4 6 3 15 -5 22 -17 17
-32 32 -45 46 -41 6 2 10 -4 9 -14 -1 -12 5 -17 17 -15 12 2 17 -4 17 -22 0
-18 4 -24 15 -20 9 4 15 0 15 -10 0 -9 8 -16 20 -16 11 0 20 -7 20 -15 0 -8 7
-15 15 -15 8 0 15 -7 15 -15 0 -8 9 -15 20 -15 13 0 18 -5 14 -15 -4 -10 0
-15 15 -15 15 0 19 -4 14 -17 -5 -12 -2 -15 10 -10 12 5 17 1 17 -13 0 -11 7
-21 15 -21 35 -3 40 -5 37 -17 -2 -11 11 -16 31 -13 5 1 6 -3 2 -9 -3 -6 -10
-8 -14 -6 -4 3 -8 -1 -8 -8 0 -7 5 -13 11 -13 35 1 56 -4 56 -13 0 -5 -7 -7
-15 -4 -8 4 -15 1 -15 -5 0 -6 3 -10 8 -10 27 5 52 -3 52 -16 0 -8 7 -15 15
-15 8 0 15 -6 15 -14 0 -7 9 -16 21 -19 12 -3 18 -10 14 -16 -6 -10 16 -16 39
-12 5 1 4 -5 -4 -13 -11 -14 -9 -16 10 -16 15 0 20 -4 16 -15 -3 -8 -2 -14 2
-14 22 4 32 -2 26 -13 -5 -9 -2 -8 9 1 15 12 17 12 11 -3 -5 -12 0 -16 21 -16
21 0 26 -4 21 -16 -4 -11 1 -18 14 -21 11 -3 20 -12 20 -19 0 -8 7 -14 15 -14
8 0 15 -7 15 -16 0 -8 5 -12 10 -9 6 4 7 11 4 17 -4 7 -2 8 5 4 6 -4 9 -12 6
-17 -4 -5 1 -9 10 -9 8 0 18 -7 21 -15 4 -8 12 -15 20 -15 8 0 14 -7 14 -15 0
-8 8 -15 18 -15 9 0 24 -5 32 -11 13 -9 12 -10 -2 -5 -10 3 -18 1 -18 -4 0 -9
39 -15 64 -11 5 1 6 -5 3 -14 -5 -11 0 -15 21 -15 20 0 23 -3 13 -9 -12 -8 -8
-11 15 -17 44 -10 49 -16 28 -31 -14 -11 -15 -14 -4 -13 33 5 50 -1 50 -15 0
-8 9 -15 21 -15 13 0 18 -4 13 -12 -6 -10 -4 -10 8 0 10 8 19 9 22 3 3 -5 0
-12 -6 -15 -9 -4 -8 -5 2 -5 40 3 70 -2 70 -10 0 -6 -10 -8 -21 -6 -12 3 -19
1 -15 -2 4 -4 15 -8 26 -10 11 -2 29 -4 40 -6 11 -2 23 -7 27 -12 5 -4 3 -5
-4 -1 -6 3 -15 2 -18 -4 -4 -6 -3 -10 2 -9 27 5 53 -3 53 -16 0 -8 5 -15 10
-15 6 0 10 -5 10 -11 0 -5 -6 -7 -12 -3 -8 4 -10 3 -5 -2 10 -10 14 -11 57
-13 19 -1 30 -6 30 -16 0 -11 11 -15 39 -15 53 0 74 -9 61 -25 -7 -9 -1 -12
27 -13 20 -1 41 -7 47 -13 8 -9 7 -10 -3 -4 -8 5 -12 4 -8 -1 3 -6 23 -11 43
-12 21 -2 42 -8 46 -15 4 -6 20 -12 37 -13 23 -1 28 2 24 15 -5 13 -3 13 8 -1
10 -12 32 -18 79 -20 48 -2 64 -7 62 -16 -1 -8 2 -11 8 -7 6 3 8 10 5 15 -3 5
3 8 14 7 13 -1 17 -5 11 -12 -6 -7 16 -11 73 -12 53 -1 84 2 89 10 6 9 8 9 8
0 0 -7 5 -13 10 -13 6 0 10 8 10 17 0 15 2 14 15 -3 15 -19 15 -19 8 1 -6 18
-5 19 12 5 11 -9 16 -10 11 -2 -5 8 0 12 13 12 12 0 21 -5 21 -11 0 -5 -4 -7
-10 -4 -5 3 -10 2 -10 -4 0 -13 218 -9 228 4 9 13 46 19 38 6 -4 -5 -2 -13 4
-16 6 -4 9 -1 8 7 -2 8 10 14 35 16 20 2 37 8 37 13 0 6 7 4 15 -5 8 -8 15
-20 15 -26 0 -6 6 -13 13 -16 8 -3 14 -11 14 -19 0 -8 -4 -12 -8 -9 -11 6 -18
-9 -21 -45 -1 -18 -7 -35 -12 -38 -5 -4 -6 -1 -1 7 5 9 4 11 -3 6 -7 -4 -12
-20 -12 -36 0 -34 -9 -62 -19 -56 -6 4 -11 -25 -14 -80 -1 -20 -23 -11 -25 10
-1 16 1 18 8 6 7 -11 9 -10 7 7 -3 40 -24 5 -26 -44 -2 -27 -3 -53 -4 -60 0
-7 -4 -10 -9 -7 -5 3 -5 11 -2 17 4 7 3 8 -1 4 -10 -9 -13 -25 -16 -84 -2 -23
-6 -40 -10 -37 -5 2 -6 12 -3 22 5 15 4 15 -6 -1 -9 -14 -9 -22 2 -34 9 -12 9
-15 1 -9 -10 5 -13 -3 -13 -31 -1 -33 -2 -36 -14 -21 -11 15 -13 13 -13 -20
-1 -119 -8 -214 -17 -219 -5 -3 -6 -1 -2 5 4 7 2 12 -3 12 -6 0 -11 -7 -11
-15 0 -8 6 -15 13 -15 9 0 9 -2 -1 -9 -17 -10 -14 -204 3 -197 10 4 19 -72 18
-161 0 -18 4 -33 9 -33 5 0 7 4 3 9 -3 5 -1 12 5 16 8 5 17 -75 11 -108 -1 -5
3 -6 9 -2 6 3 8 11 5 16 -4 5 -1 9 5 9 6 0 8 -11 6 -25 -3 -13 -1 -27 4 -30 5
-3 6 -13 3 -23 -6 -14 -4 -15 8 -5 12 10 15 8 17 -10 4 -40 7 -52 15 -54 16
-6 19 -2 8 10 -8 10 -7 14 3 14 8 0 13 -7 11 -16 -4 -24 13 -63 25 -56 5 3 11
-1 11 -9 3 -30 4 -34 13 -43 5 -5 6 -3 2 5 -4 6 -2 12 3 12 6 0 12 -7 12 -15
1 -8 3 -19 4 -25 1 -5 3 -16 4 -22 1 -9 4 -8 11 2 8 13 10 12 10 -3 0 -10 7
-20 15 -23 8 -4 15 -13 15 -21 0 -9 5 -11 13 -7 7 5 7 2 -2 -10 -12 -14 -12
-17 0 -14 8 2 15 -7 17 -19 2 -13 10 -23 18 -23 8 0 14 -7 14 -15 0 -8 6 -15
14 -15 8 0 16 -6 19 -14 3 -8 18 -16 34 -18 16 -2 27 -8 25 -15 -1 -7 7 -13
17 -13 10 0 21 -7 25 -15 3 -8 13 -15 21 -15 10 0 13 -5 9 -12 -5 -8 -1 -7 10
1 16 13 17 13 14 -5 -2 -13 2 -18 12 -16 13 3 13 2 0 -12 -10 -10 -40 -16 -87
-18 -40 -2 -76 -7 -80 -11 -4 -5 0 -5 9 -2 9 4 18 3 21 -2 3 -5 -5 -10 -19
-11 -13 -1 -24 3 -24 8 0 6 -5 10 -11 10 -5 0 -7 -4 -4 -10 6 -9 -85 -16 -137
-11 -10 1 -18 -2 -18 -8 0 -6 -7 -8 -15 -5 -8 4 -15 2 -15 -4 0 -11 18 -11 35
0 6 4 17 3 24 -1 9 -6 10 -11 2 -15 -6 -4 -11 -2 -11 5 0 8 -4 8 -13 1 -7 -6
-22 -11 -32 -11 -80 2 -134 -4 -128 -14 4 -6 1 -7 -8 -1 -8 5 -27 9 -42 10
-24 1 -25 0 -11 -10 13 -10 4 -13 -52 -14 -84 -3 -101 -6 -111 -17 -4 -4 -3
-5 4 -1 6 3 15 2 18 -4 4 -6 3 -10 -2 -9 -4 1 -25 1 -45 0 -28 -1 -38 -5 -38
-17 0 -14 -2 -15 -17 -3 -11 10 -14 10 -9 2 7 -13 -10 -16 -96 -17 -15 0 -24
-4 -21 -9 3 -4 11 -6 19 -3 8 3 14 1 14 -4 0 -8 -46 -15 -72 -11 -5 0 -8 -6
-8 -14 0 -10 -11 -15 -32 -16 -18 0 -27 -3 -20 -6 19 -7 14 -19 -9 -20 -28 -2
-28 -3 -31 -45 -1 -20 -7 -36 -12 -35 -6 1 -12 -21 -14 -50 -2 -29 -8 -53 -13
-53 -6 0 -7 6 -3 12 4 8 3 10 -2 5 -14 -13 -13 -208 1 -213 6 -3 12 -26 14
-52 1 -25 8 -50 14 -54 7 -4 13 -31 13 -60 3 -113 7 -158 15 -158 4 0 6 10 4
21 -3 12 -1 19 3 15 7 -8 9 -26 13 -144 1 -54 5 -72 14 -68 14 5 14 -19 0 -31
-4 -4 -5 -2 0 6 5 10 4 12 -4 7 -6 -4 -9 -12 -5 -17 3 -5 9 -7 13 -5 9 6 12
-22 14 -171 1 -61 5 -106 9 -100 4 6 4 15 2 19 -3 4 -1 8 4 8 5 0 10 -46 11
-103 1 -56 3 -110 4 -119 5 -31 15 -30 13 1 -1 16 1 28 5 25 14 -8 7 -168 -7
-191 -8 -12 -14 -29 -14 -38 0 -8 -3 -15 -8 -15 -4 0 -23 -14 -41 -31 -19 -16
-31 -23 -28 -15 4 9 2 16 -3 16 -6 0 -10 -9 -10 -20 0 -13 -5 -18 -15 -14 -8
4 -15 2 -15 -4 0 -6 6 -13 13 -15 7 -3 5 -6 -5 -6 -11 -1 -15 -6 -12 -16 4 -9
0 -15 -10 -15 -11 0 -16 -9 -16 -28 0 -15 -6 -34 -12 -41 -10 -11 -10 -13 0
-7 7 5 12 1 12 -9 0 -10 -5 -14 -12 -9 -10 6 -10 4 0 -7 15 -16 16 -29 1 -29
-5 0 -7 5 -3 12 4 6 3 8 -4 4 -5 -3 -12 0 -15 6 -2 7 -4 -29 -5 -80 0 -68 3
-90 11 -85 9 5 9 3 0 -8 -15 -19 -13 -57 4 -64 11 -3 11 0 3 15 -8 15 -7 25 3
40 12 17 13 12 14 -43 3 -181 6 -217 17 -210 6 4 5 -1 -2 -9 -16 -20 -12 -58
8 -76 13 -12 13 -13 -1 -9 -13 4 -16 -3 -15 -39 0 -24 5 -44 11 -44 6 0 12
-11 13 -26 1 -15 -2 -23 -8 -19 -6 4 -8 10 -5 15 3 5 1 11 -4 15 -6 3 -8 -4
-6 -17 3 -13 9 -24 15 -26 5 -2 10 -8 10 -14 0 -6 -8 -7 -17 -4 -16 5 -16 5
-2 -6 12 -10 16 -37 17 -121 2 -81 6 -113 17 -124 8 -8 15 -25 15 -38 0 -19 4
-22 23 -18 20 4 21 3 5 -10 -16 -12 -14 -14 20 -16 20 -2 45 -3 55 -2 9 0 17
-8 17 -17 0 -14 2 -13 13 3 11 14 16 15 22 5 5 -9 4 -11 -3 -6 -7 4 -12 2 -12
-3 0 -9 42 -14 122 -14 10 0 15 -4 12 -8 -3 -5 -9 -7 -14 -4 -5 3 -11 1 -15
-4 -3 -6 3 -8 13 -6 10 2 34 0 53 -4 25 -5 33 -12 31 -25 -2 -12 1 -16 9 -10
9 5 9 3 3 -7 -5 -8 -9 -31 -10 -52 0 -25 2 -33 7 -24 5 8 7 24 4 35 -2 12 -1
24 3 26 4 2 8 -34 10 -80 2 -59 -1 -83 -9 -82 -12 3 -22 -49 -10 -56 4 -3 7 8
6 24 -1 16 2 27 6 24 12 -7 2 -59 -11 -56 -6 1 -11 -6 -10 -15 5 -49 0 -84
-12 -77 -10 6 -10 5 -1 -7 13 -16 14 -101 1 -93 -4 3 -5 13 -3 24 2 11 0 20
-4 20 -5 0 -8 -13 -7 -30 0 -16 4 -30 8 -30 5 0 8 -5 8 -11 0 -5 -4 -8 -9 -5
-8 5 -13 -45 -13 -138 0 -18 -3 -24 -8 -16 -5 7 -7 22 -4 33 2 11 0 17 -3 13
-7 -6 -11 -51 -16 -148 -1 -25 -6 -50 -11 -55 -5 -5 -6 -3 -2 5 4 6 2 12 -3
12 -6 0 -11 -7 -11 -15 0 -8 5 -15 10 -15 6 0 10 -5 10 -11 0 -5 -4 -7 -10 -4
-6 4 -10 -14 -11 -47 -1 -58 -6 -99 -15 -107 -3 -3 -3 14 1 39 4 25 4 43 1 40
-8 -9 -16 -62 -17 -117 -1 -39 -5 -53 -15 -53 -8 0 -14 -6 -13 -12 1 -7 1 -32
0 -56 -1 -32 -4 -41 -13 -36 -10 6 -10 4 0 -8 12 -15 13 -37 2 -48 -14 -14
-30 -52 -30 -70 0 -12 -4 -19 -9 -16 -5 3 -11 -1 -14 -9 -4 -9 -1 -12 9 -8 7
3 14 0 14 -6 0 -6 -6 -11 -13 -11 -9 0 -14 -12 -14 -31 0 -17 -5 -34 -12 -39
-11 -6 -11 -9 0 -12 26 -9 3 -17 -54 -19 -31 -1 -57 -6 -57 -11 0 -5 4 -7 9
-3 5 3 12 2 14 -2 3 -5 -8 -9 -25 -10 -21 0 -26 2 -17 8 9 6 10 9 2 9 -6 0
-14 -4 -17 -8 -3 -5 -26 -9 -51 -11 -34 -1 -45 1 -39 10 4 8 3 9 -5 5 -20 -12
-61 -17 -61 -7 0 6 9 8 20 6 11 -2 20 0 20 4 0 5 -42 10 -92 11 -139 3 -143 4
-140 18 1 8 -2 11 -8 7 -6 -3 -8 -10 -6 -14 3 -4 -21 -7 -54 -7 -32 1 -56 4
-54 7 2 3 22 5 44 4 22 -1 42 1 44 4 2 3 -46 7 -107 8 -62 1 -119 2 -128 2
-11 1 -15 9 -13 27 2 20 -1 24 -14 20 -13 -5 -12 -2 2 9 17 13 18 15 3 15 -14
0 -17 11 -18 63 -3 108 -4 115 -11 111 -12 -8 -18 13 -20 74 -1 33 -6 58 -10
56 -4 -3 -4 -12 -1 -21 4 -10 2 -14 -4 -10 -5 4 -11 35 -12 69 -3 90 -9 139
-16 146 -3 3 -4 -15 -2 -40 2 -26 0 -45 -4 -43 -3 3 -7 37 -8 76 -2 77 -6 93
-23 83 -7 -4 -8 -2 -4 5 4 6 12 9 17 6 5 -4 8 5 7 19 -1 13 -6 22 -10 20 -5
-3 -5 -10 -2 -16 4 -7 2 -8 -4 -4 -13 8 -12 33 2 55 6 10 5 12 -2 7 -11 -7
-18 33 -13 73 2 8 -2 10 -11 5 -10 -6 -10 -5 -2 7 17 21 13 47 -6 42 -13 -4
-17 5 -19 44 -1 26 -7 50 -13 54 -7 4 -5 8 3 12 10 4 8 6 -4 6 -10 1 -17 7
-16 13 4 31 -2 48 -16 48 -8 0 -15 8 -15 18 0 14 2 15 10 2 5 -8 10 -11 10 -7
0 21 -35 57 -56 57 -15 0 -24 6 -24 15 0 13 -25 21 -52 16 -5 0 -8 5 -8 12 0
13 -6 15 -54 19 -15 1 -22 7 -19 15 4 9 -5 13 -27 13 -17 0 -29 4 -26 8 3 5 0
9 -7 10 -48 7 -110 12 -151 14 -33 1 -43 4 -30 8 10 4 22 6 27 3 4 -2 7 0 7 5
0 15 -54 9 -68 -8 -10 -13 -11 -13 -6 2 5 15 -2 17 -55 15 -34 -1 -61 -3 -61
-5 0 -1 10 -7 23 -11 20 -8 19 -9 -10 -9 -24 1 -30 5 -26 17 3 12 2 12 -7 -2
-6 -9 -19 -17 -28 -17 -10 0 -24 -6 -31 -12 -11 -10 -13 -10 -7 0 5 8 -1 12
-18 12 -16 0 -26 -6 -26 -15 0 -8 -5 -15 -11 -15 -5 0 -8 4 -4 9 3 5 0 13 -6
17 -7 4 -9 3 -5 -4 3 -6 2 -13 -4 -17 -5 -3 -10 0 -10 7 0 8 -3 9 -8 3 -6 -10
-35 -16 -88 -18 -13 -1 -20 -6 -17 -13 3 -8 -6 -11 -27 -10 -17 1 -33 -1 -36
-5 -3 -5 -11 -6 -19 -2 -10 3 -15 -1 -15 -12 0 -9 -5 -13 -10 -10 -6 4 -7 11
-4 17 4 7 2 8 -5 4 -6 -4 -9 -12 -6 -17 6 -8 -23 -14 -53 -10 -6 1 -12 -4 -12
-12 0 -14 -5 -16 -58 -20 -26 -2 -30 -4 -17 -13 12 -9 9 -11 -18 -13 -17 -1
-40 -2 -49 -2 -11 0 -18 -8 -18 -20 0 -15 -7 -19 -37 -19 -25 0 -33 -3 -25 -9
11 -7 10 -10 -3 -15 -9 -3 -25 -6 -36 -6 -10 0 -19 -7 -19 -15 0 -14 -17 -20
-47 -16 -7 1 -13 -5 -13 -14 0 -13 -32 -21 -63 -16 -5 1 -6 -3 -2 -9 3 -6 11
-8 16 -5 5 4 9 1 9 -5 0 -6 -6 -10 -12 -9 -7 1 -21 1 -32 0 -16 -1 -17 -3 -5
-18 13 -15 12 -15 -10 -4 -15 8 -21 9 -17 2 7 -10 -13 -15 -52 -14 -10 1 -10
-2 0 -15 9 -10 9 -13 1 -9 -6 4 -14 3 -18 -3 -4 -6 -10 -8 -15 -5 -5 3 -12 0
-16 -6 -4 -7 -3 -9 4 -5 6 3 14 1 18 -5 4 -7 3 -9 -3 -6 -5 3 -21 0 -36 -8
-14 -7 -29 -10 -33 -7 -5 4 -2 -1 5 -10 12 -16 11 -18 -8 -19 -34 -2 -39 -4
-48 -13 -4 -5 -3 -6 4 -2 6 3 14 3 17 -2 2 -4 -4 -9 -15 -9 -10 -1 -26 -9 -35
-17 -9 -9 -20 -14 -25 -11 -5 4 -9 1 -9 -5 0 -6 -4 -9 -9 -5 -5 3 -13 0 -17
-6 -4 -7 -3 -9 4 -5 6 3 14 2 17 -4 4 -6 3 -10 -2 -9 -28 5 -53 -3 -53 -17 0
-10 -6 -14 -14 -11 -8 3 -16 -2 -19 -14 -3 -10 -12 -19 -21 -19 -14 0 -15 -68
-16 -665 l0 -665 6255 0 c6613 0 6293 -2 6238 41 -16 12 -17 12 -6 -2 10 -13
10 -16 -1 -16 -9 0 -14 15 -15 46 -3 69 -4 71 -13 65 -5 -3 -6 -9 -3 -14 3 -5
2 -11 -3 -14 -4 -2 -8 5 -9 17 -2 67 -8 105 -15 101 -5 -3 -5 -10 -2 -16 4 -6
3 -8 -2 -5 -6 3 -11 25 -13 49 -1 23 -7 46 -14 50 -13 8 -14 12 -16 54 0 14
-5 23 -10 19 -5 -3 -13 0 -17 6 -4 7 -3 9 4 5 6 -3 13 -2 16 3 8 12 -4 42 -14
36 -4 -2 -8 8 -8 23 -2 38 -7 60 -15 68 -3 4 -4 -6 -1 -22 3 -16 2 -25 -2 -21
-4 4 -8 21 -10 39 -5 56 -11 73 -24 70 -6 -1 -9 2 -5 8 3 6 11 8 16 5 5 -4 9
-1 9 4 0 6 -7 11 -15 11 -15 0 -19 15 -15 58 1 12 -6 25 -14 28 -10 4 -16 18
-16 40 0 26 -4 34 -18 34 -18 0 -25 31 -24 103 1 9 -3 17 -8 17 -5 0 -7 -10
-5 -22 3 -13 1 -18 -4 -12 -5 5 -12 33 -14 62 -6 60 -16 81 -18 36 l-1 -29 -7
30 c-4 17 -6 47 -6 67 1 20 -3 35 -7 32 -5 -4 -7 -13 -4 -21 3 -8 1 -11 -4 -8
-6 3 -10 24 -10 46 0 26 -4 39 -14 39 -12 0 -17 30 -17 103 0 9 -5 17 -10 17
-6 0 -8 -4 -4 -9 3 -5 2 -12 -3 -15 -4 -2 -8 6 -8 20 0 14 5 23 11 20 7 -2 12
2 12 9 0 7 -6 11 -14 8 -9 -4 -13 6 -13 36 0 29 -4 39 -13 35 -8 -3 -14 2 -14
10 0 8 7 12 16 9 13 -4 14 -3 2 5 -13 9 -20 27 -23 59 -1 6 -7 9 -13 7 -6 -3
-12 1 -13 8 0 7 -2 30 -3 51 -2 37 -12 47 -25 25 -4 -6 -3 -8 3 -5 5 3 10 0
10 -7 0 -8 -6 -12 -12 -10 -6 3 -12 23 -13 46 -1 22 -8 46 -16 52 -8 6 -16 31
-17 56 -3 55 -8 72 -20 64 -5 -3 -9 13 -9 35 0 29 -4 39 -13 35 -8 -3 -13 5
-15 22 -1 15 -8 34 -15 42 -7 10 -7 13 -1 9 7 -4 12 2 12 18 0 14 -5 25 -10
25 -5 0 -7 -4 -3 -9 3 -5 2 -12 -3 -15 -4 -3 -9 14 -11 36 -1 23 -7 49 -12 57
-9 13 -9 12 -4 -4 5 -15 3 -17 -5 -8 -7 6 -12 33 -13 59 0 27 -2 43 -5 36 -11
-35 -21 -3 -25 85 0 7 -4 10 -9 7 -5 -3 -6 -10 -3 -15 4 -5 1 -9 -5 -9 -6 0
-8 11 -6 25 3 13 1 27 -4 30 -4 3 -6 15 -3 28 3 16 2 18 -5 8 -5 -7 -15 -10
-21 -6 -9 5 -7 11 6 21 14 11 15 13 2 8 -11 -3 -18 2 -22 18 -4 13 -2 25 3 26
6 2 8 8 4 13 -3 5 0 9 5 9 6 0 11 -4 11 -10 0 -5 5 -10 11 -10 6 0 9 6 6 13
-3 8 0 14 6 15 58 5 78 9 84 17 4 4 3 5 -4 1 -6 -3 -14 -2 -18 4 -4 6 6 10 24
10 20 0 31 5 32 15 3 29 4 33 13 42 5 4 6 3 2 -4 -3 -6 -2 -14 3 -17 11 -7 9
13 -3 33 -6 10 -5 12 2 7 12 -7 13 -2 15 147 1 31 5 57 9 57 5 0 6 -11 4 -25
-3 -14 -1 -23 3 -21 13 9 6 91 -8 88 -7 -1 -10 2 -6 8 3 6 11 8 16 4 7 -4 9
48 7 149 -2 85 -6 150 -9 145 -4 -6 -5 -28 -4 -49 2 -22 0 -41 -3 -43 -4 -2
-8 25 -9 60 -1 47 2 62 10 57 9 -5 9 -3 0 8 -8 10 -13 63 -15 148 -1 73 -5
134 -9 136 -3 3 -5 -14 -4 -36 1 -21 -1 -37 -4 -34 -3 4 -6 26 -6 50 -1 34 2
42 14 38 14 -4 14 -3 0 9 -9 7 -17 29 -17 48 0 81 -2 91 -14 84 -7 -5 -8 -3
-2 7 13 22 13 38 -1 33 -8 -3 -13 4 -14 20 -3 48 -4 55 -12 50 -4 -2 -10 0
-14 5 -3 6 -12 8 -20 4 -9 -3 -15 1 -15 11 0 9 -3 15 -8 15 -4 -1 -11 0 -17 1
-5 1 -19 3 -30 4 -11 0 -19 7 -18 14 2 6 -4 12 -12 12 -8 0 -15 7 -15 16 0 9
-6 14 -13 11 -8 -3 -14 1 -14 8 0 7 6 11 14 8 7 -3 13 0 13 6 0 6 -6 11 -13
11 -9 0 -14 17 -16 55 -2 49 0 54 16 49 15 -5 15 -4 3 5 -19 13 -22 51 -4 44
11 -4 14 7 15 43 1 27 1 53 -1 59 -1 5 5 14 14 20 10 7 16 31 17 68 2 50 7 61
29 59 4 0 6 9 7 21 6 128 7 137 19 116 9 -18 11 -15 13 28 4 83 7 102 14 109
3 4 5 -3 2 -14 -2 -12 1 -24 6 -28 5 -3 9 -2 8 3 -1 4 -1 27 0 50 1 36 4 41
19 37 14 -5 15 -4 2 5 -17 11 -23 51 -7 48 5 -1 12 4 14 11 3 8 -1 10 -14 6
-17 -6 -17 -6 -1 7 12 10 18 32 20 76 2 34 6 59 11 56 4 -2 5 -9 2 -14 -4 -5
-2 -9 4 -9 5 0 9 12 7 27 -1 16 5 37 13 47 9 11 11 16 5 13 -8 -5 -11 5 -11
27 1 19 5 32 9 30 5 -3 5 -10 2 -16 -4 -6 -3 -8 3 -5 5 3 11 37 12 74 1 37 7
73 12 78 7 7 8 3 4 -10 -6 -18 -5 -18 5 -2 14 21 7 83 -9 80 -10 -3 -16 26
-12 51 1 5 -4 6 -12 3 -7 -3 -19 4 -26 15 -7 11 -8 17 -2 13 6 -3 11 -1 11 4
0 6 -13 11 -30 11 -20 0 -30 5 -30 15 0 14 -6 16 -69 19 -16 0 -33 4 -37 8 -3
4 3 6 14 3 12 -2 24 0 26 4 3 4 -5 8 -17 8 -73 4 -107 9 -114 16 -4 5 0 5 9 2
9 -4 19 -2 22 3 3 5 0 10 -7 9 -55 -2 -86 4 -81 16 3 8 -5 13 -21 15 -18 1
-24 -2 -19 -10 4 -7 3 -8 -4 -4 -7 4 -12 23 -12 43 0 27 3 34 15 29 11 -4 15
2 15 20 0 14 4 23 9 19 5 -3 12 -1 15 4 4 5 1 13 -5 17 -8 5 -9 3 -4 -6 5 -9
4 -11 -4 -6 -6 4 -9 12 -5 17 3 5 10 7 15 4 5 -4 9 3 9 14 0 12 7 21 15 21 9
0 15 9 15 21 0 16 4 20 18 15 16 -6 16 -5 -1 8 -22 17 -22 27 1 19 15 -6 16
-5 2 12 -9 11 -10 16 -2 11 8 -5 12 0 12 13 0 12 7 21 15 21 8 0 12 6 9 14 -3
8 3 23 13 34 18 19 23 32 26 64 1 9 5 14 9 12 7 -5 12 10 9 29 0 4 3 7 9 7 5
0 7 7 4 15 -4 11 0 15 16 15 15 0 20 5 17 14 -3 8 -3 17 1 21 3 3 7 18 7 33 0
16 6 26 13 25 8 -2 12 11 12 36 0 22 5 41 12 43 7 3 13 31 15 74 2 46 8 73 18
80 9 7 15 28 15 52 0 22 5 42 12 44 6 2 13 24 15 49 4 75 8 83 35 84 13 1 25
-3 26 -9 1 -6 3 -44 6 -85 2 -41 9 -77 15 -81 7 -4 12 -39 13 -84 1 -42 5 -72
9 -65 4 7 4 19 1 28 -5 14 -4 14 10 1 9 -8 12 -16 7 -18 -5 -2 -9 -8 -9 -13 0
-6 4 -8 8 -5 8 5 14 -51 15 -131 0 -21 5 -33 14 -33 9 0 12 -13 11 -41 -1 -31
4 -46 18 -57 16 -12 16 -14 2 -9 -10 4 -18 2 -18 -3 0 -6 6 -10 13 -10 15 0
20 -37 6 -45 -5 -4 -9 -12 -9 -18 0 -7 4 -6 10 3 7 11 10 2 10 -32 0 -29 5
-48 11 -48 8 0 7 -6 -2 -17 -12 -14 -12 -16 1 -11 16 6 17 -2 23 -143 1 -20 8
-43 15 -52 8 -9 14 -39 14 -66 -1 -28 3 -53 8 -56 4 -3 6 5 3 17 -3 13 -2 20
2 16 7 -6 14 -81 17 -175 1 -18 5 -30 10 -27 5 3 6 9 3 14 -3 5 -2 11 3 14 5
3 9 -12 9 -32 4 -111 8 -160 15 -156 4 2 5 14 3 26 -3 11 -1 17 3 14 12 -13 8
-51 -8 -64 -13 -10 -13 -11 3 -6 15 5 17 -1 18 -45 2 -72 2 -74 19 -78 13 -4
13 -3 0 6 -13 9 -13 11 0 11 11 0 11 3 2 12 -7 7 -12 17 -12 23 1 16 24 -28
27 -52 3 -17 -1 -21 -17 -18 -11 2 -18 0 -15 -6 4 -5 11 -7 16 -4 13 9 20 -15
23 -74 1 -27 5 -53 9 -58 5 -4 5 1 2 12 -6 19 -6 19 5 2 10 -15 8 -21 -7 -33
-16 -13 -16 -13 0 -8 14 5 17 0 19 -32 0 -22 1 -47 0 -56 -1 -11 4 -15 12 -12
10 4 14 -3 12 -26 -1 -17 1 -33 6 -36 5 -3 5 -10 2 -16 -4 -6 0 -14 7 -19 10
-6 11 -9 2 -9 -7 0 -13 -5 -13 -11 0 -6 7 -8 17 -5 15 6 14 4 -2 -14 -16 -18
-17 -20 -2 -14 10 3 17 1 17 -5 0 -6 -4 -11 -10 -11 -5 0 -10 -5 -10 -11 0 -5
4 -7 10 -4 6 4 10 -8 10 -29 0 -19 5 -36 10 -38 6 -2 13 -16 16 -32 4 -26 3
-28 -11 -16 -8 7 -15 8 -15 2 0 -5 7 -12 15 -16 9 -3 15 -19 15 -41 0 -26 4
-35 18 -36 14 0 14 -2 2 -7 -17 -8 -20 -26 -6 -39 5 -4 6 -3 2 4 -3 6 -3 14 2
17 4 2 9 -7 10 -20 1 -14 -2 -23 -7 -19 -5 3 -13 0 -17 -6 -4 -7 -3 -9 4 -5
15 9 21 -4 23 -57 2 -35 6 -46 16 -43 19 8 16 -11 -4 -24 -14 -9 -14 -10 -2
-7 12 4 16 -3 18 -31 1 -21 3 -43 3 -49 1 -7 8 -13 15 -13 8 0 11 -5 8 -10 -4
-6 -11 -7 -17 -4 -7 4 -8 2 -4 -5 4 -6 12 -9 17 -6 5 4 9 -23 9 -64 0 -67 1
-71 23 -71 22 -1 22 -1 -3 -16 -20 -12 -21 -14 -4 -9 19 5 21 1 23 -42 2 -27
3 -56 3 -66 -1 -9 4 -17 9 -17 6 0 8 4 5 8 -2 4 -1 14 3 21 5 7 8 1 9 -19 0
-21 -3 -28 -11 -23 -9 5 -9 3 0 -8 6 -8 13 -36 14 -62 2 -31 7 -47 16 -47 9 0
13 -15 13 -50 0 -33 4 -50 13 -50 9 0 9 -2 0 -8 -7 -4 -11 -17 -10 -29 0 -12
5 -20 9 -17 4 3 5 11 1 19 -3 8 -1 15 4 15 5 0 9 -17 10 -37 3 -99 9 -161 15
-157 3 2 5 15 3 29 -1 14 1 27 5 30 6 4 9 -38 13 -162 1 -12 4 -20 8 -17 4 2
6 14 4 26 -3 11 -1 18 2 14 7 -7 13 -52 16 -136 1 -38 6 -54 15 -53 8 2 12
-12 13 -45 1 -26 2 -51 4 -57 1 -5 3 -16 3 -23 1 -7 7 -10 12 -7 10 6 11 1 14
-78 1 -33 6 -53 18 -61 12 -9 19 -31 22 -76 2 -34 9 -66 16 -70 7 -4 13 -26
13 -48 0 -23 4 -39 9 -36 5 3 6 10 3 15 -4 5 -2 9 4 9 5 0 10 -8 10 -17 1
-115 2 -122 19 -116 15 6 15 5 3 -10 -9 -11 -10 -17 -2 -17 6 0 11 -9 11 -21
0 -13 4 -18 12 -13 6 4 8 3 4 -4 -3 -5 -3 -12 1 -15 5 -2 3 -2 -4 -1 -7 2 -11
-9 -11 -27 1 -16 -2 -32 -5 -36 -4 -3 -7 2 -7 13 -1 14 -5 11 -15 -11 -7 -16
-14 -24 -14 -17 -1 17 -21 15 -21 -3 0 -13 -25 -21 -53 -16 -4 1 -10 -6 -13
-14 -4 -8 -12 -15 -20 -15 -8 0 -14 -9 -14 -20 0 -11 -7 -21 -15 -21 -29 -3
-33 -4 -42 -13 -4 -5 -3 -6 4 -2 6 3 14 2 18 -4 3 -5 -1 -10 -10 -10 -8 0 -19
-8 -22 -17 -6 -15 -7 -15 -14 3 -7 17 -8 17 -8 2 -1 -10 -8 -18 -16 -18 -8 0
-15 -7 -15 -15 0 -8 -7 -15 -15 -15 -8 0 -15 -7 -15 -15 0 -8 -9 -15 -21 -15
-11 0 -18 -4 -14 -9 3 -5 1 -12 -4 -15 -5 -4 -13 -1 -17 5 -5 8 -3 9 6 4 9 -5
11 -4 6 4 -4 6 -12 9 -17 5 -5 -3 -7 -10 -4 -15 4 -5 -4 -9 -17 -10 -13 0 -17
-3 -10 -6 13 -5 17 -24 5 -22 -25 4 -43 -3 -43 -16 0 -14 -18 -20 -49 -15 -11
1 -10 -2 3 -15 20 -21 21 -20 -11 -23 -32 -2 -32 -3 -36 -30 -2 -12 -7 -25
-12 -29 -4 -5 -5 -3 -1 4 3 6 2 15 -4 18 -6 4 -10 3 -9 -2 5 -27 -3 -53 -16
-53 -8 0 -15 -8 -15 -19 0 -10 -8 -25 -17 -32 -10 -8 -14 -9 -10 -2 4 6 3 14
-3 18 -5 3 -10 -3 -10 -15 0 -12 -4 -19 -9 -15 -5 3 -13 0 -17 -6 -4 -7 -3 -9
4 -5 6 3 13 2 17 -4 3 -5 -1 -10 -9 -10 -9 0 -17 -7 -17 -15 -1 -8 -2 -24 -3
-34 0 -11 -4 -23 -8 -27 -4 -3 -6 3 -3 14 2 12 0 24 -4 26 -4 3 -7 -18 -7 -47
1 -31 6 -51 12 -50 9 1 13 -28 17 -104 0 -7 4 -10 8 -7 5 2 5 12 2 22 -3 9 -3
14 2 10 7 -7 16 -50 18 -90 1 -10 9 -18 20 -18 10 0 17 -6 16 -12 -5 -42 2
-78 16 -78 8 0 15 -4 15 -10 0 -5 -6 -10 -12 -10 -10 0 -10 -2 -1 -8 6 -4 14
-21 16 -37 2 -17 10 -29 16 -28 9 3 15 -23 14 -64 0 -6 6 -9 13 -6 10 4 14 -5
15 -33 1 -22 1 -43 0 -47 -1 -5 3 -6 9 -2 6 3 8 11 5 16 -4 5 -1 9 5 9 6 0 10
-6 9 -12 -4 -36 2 -59 14 -52 7 5 6 0 -3 -11 -14 -17 -13 -18 3 -12 19 7 24
-9 5 -16 -10 -4 -10 -6 0 -6 6 -1 12 -12 12 -25 0 -14 5 -28 12 -32 7 -5 8 -2
3 7 -5 8 -4 10 0 6 16 -14 14 -36 -3 -31 -14 5 -14 4 1 -6 9 -6 15 -15 12 -21
-4 -5 -2 -9 4 -9 6 0 7 -8 4 -18 -6 -15 -5 -15 11 -3 15 12 17 12 14 0 -2 -8
-7 -17 -13 -21 -6 -5 -5 -8 3 -8 6 0 12 -9 12 -20 0 -18 10 -25 32 -21 5 0 7
-2 7 -7 -6 -35 3 -82 15 -82 8 0 14 -10 15 -22 2 -56 6 -76 13 -72 5 3 6 9 3
14 -3 5 -2 11 3 14 4 2 8 -5 9 -17 2 -57 8 -77 23 -78 10 0 11 -2 3 -6 -10 -3
-9 -8 2 -20 8 -8 13 -19 10 -24 -4 -5 1 -9 9 -9 10 0 16 -9 16 -25 l0 -25
1185 0 1185 0 0 4227 c0 3771 -2 4225 -15 4207 -8 -10 -15 -14 -14 -9 5 38 -2
64 -16 59 -11 -5 -15 1 -15 19 0 14 -6 32 -13 39 -7 7 -16 21 -20 31 -4 10
-11 15 -17 12 -5 -3 -11 1 -11 9 -3 35 -5 41 -17 39 -16 -4 -41 37 -44 69 -1
16 -7 24 -15 21 -9 -3 -13 4 -13 21 0 16 -6 26 -15 26 -8 0 -14 3 -14 8 1 4 0
10 -1 15 -1 4 -3 12 -4 19 -1 15 -26 23 -26 8 0 -6 5 -8 12 -4 7 4 8 3 4 -4
-10 -16 -11 -16 -31 14 -9 15 -12 23 -6 20 6 -4 11 -2 11 3 0 6 -6 11 -14 11
-7 0 -16 9 -19 21 -3 12 -10 18 -16 14 -7 -4 -11 5 -11 24 0 23 -4 29 -15 25
-11 -5 -15 1 -15 20 0 18 -4 24 -15 20 -10 -4 -15 1 -16 15 -2 34 -4 39 -13
48 -5 4 -6 3 -2 -4 3 -6 2 -14 -4 -18 -5 -3 -10 -1 -10 6 0 6 -8 18 -17 25
-17 13 -17 14 2 8 19 -5 19 -5 3 9 -10 8 -18 19 -18 26 0 6 -7 11 -15 11 -14
0 -20 19 -15 45 1 6 -4 4 -11 -2 -19 -19 -34 -16 -18 4 10 11 10 14 2 9 -8 -4
-13 -1 -13 8 0 9 -5 16 -11 16 -5 0 -7 -5 -3 -12 4 -7 3 -8 -4 -4 -7 4 -12 18
-12 32 0 13 -4 24 -10 24 -5 0 -7 -8 -4 -17 5 -15 4 -16 -5 -3 -6 8 -11 25
-11 38 0 13 -6 22 -15 22 -8 0 -15 9 -15 20 0 13 -5 18 -15 14 -9 -4 -15 0
-15 9 0 8 -7 18 -16 21 -8 3 -12 10 -9 16 3 5 -1 10 -9 10 -8 0 -18 5 -22 12
-4 6 -3 8 4 4 6 -3 14 -2 17 4 4 6 3 10 -2 9 -21 -4 -43 2 -43 12 0 5 5 7 12
3 7 -4 8 -3 4 5 -4 6 -11 9 -16 6 -5 -3 -12 0 -15 6 -4 5 -14 8 -22 5 -8 -4
-11 -1 -8 5 4 6 13 8 21 5 8 -3 14 -1 14 4 0 6 -11 10 -25 10 -18 0 -23 4 -19
15 5 11 2 13 -10 9 -15 -6 -21 4 -17 34 1 6 -6 12 -16 12 -14 0 -19 7 -18 28
2 39 15 73 26 67 5 -4 9 3 9 14 0 12 5 20 12 18 7 -1 15 13 19 33 3 19 7 30 8
23 1 -16 29 -6 28 10 -1 35 4 48 16 41 8 -6 8 -3 -2 9 -15 19 -7 52 10 41 8
-4 9 -3 5 5 -4 6 -12 9 -17 6 -5 -4 -9 3 -9 14 0 11 4 23 10 26 6 3 7 -1 4 -9
-3 -9 -2 -16 3 -16 13 0 15 128 2 135 -5 3 -6 -2 -2 -11 4 -12 3 -15 -5 -10
-7 4 -12 15 -12 25 0 10 -10 23 -22 30 -21 10 -21 11 -2 6 14 -4 21 0 21 10 0
8 -7 14 -16 13 -9 -2 -15 3 -14 10 2 6 -2 12 -8 12 -5 0 -7 5 -4 10 9 14 -23
62 -35 55 -6 -4 -10 -1 -10 4 0 6 4 11 8 11 5 0 9 7 9 15 0 12 -3 12 -15 3
-11 -9 -13 -9 -12 3 5 31 -1 49 -15 49 -8 0 -15 9 -15 21 0 13 -4 18 -12 13
-10 -6 -10 -4 0 7 16 18 15 29 -3 29 -8 0 -15 8 -15 18 0 9 -5 24 -11 32 -9
13 -10 12 -5 -3 3 -11 2 -16 -4 -12 -6 3 -10 17 -10 31 0 13 -6 24 -13 24 -8
0 -14 7 -15 15 -1 8 -3 22 -4 30 -1 8 -5 12 -10 9 -5 -3 -6 -10 -3 -15 4 -5 1
-9 -5 -9 -6 0 -10 6 -9 13 4 33 -2 47 -21 47 -11 0 -20 6 -20 14 0 8 -6 16
-13 19 -7 2 -13 17 -15 33 -1 15 -7 33 -14 39 -8 7 -9 5 -5 -8 4 -11 3 -16 -3
-12 -6 3 -10 16 -10 28 0 12 -5 29 -11 37 -9 13 -10 12 -5 -2 3 -10 1 -18 -4
-18 -6 0 -10 11 -10 25 0 14 -7 28 -15 31 -8 4 -15 12 -15 20 0 8 -6 14 -14
14 -7 0 -16 14 -20 30 -4 21 -11 30 -25 30 -11 0 -23 4 -26 10 -3 5 0 7 8 4 8
-3 14 2 14 11 0 9 -6 14 -14 11 -8 -3 -13 2 -13 15 0 11 -4 17 -10 14 -5 -3
-10 -1 -10 5 0 6 -4 8 -10 5 -5 -3 -10 1 -10 9 0 9 -7 16 -15 16 -8 0 -15 5
-15 11 0 7 -7 17 -16 23 -8 6 -17 20 -18 31 -2 11 -9 19 -15 18 -6 -2 -11 2
-11 8 0 5 -4 8 -9 4 -5 -3 -13 0 -17 6 -4 7 -3 9 4 5 6 -3 13 -2 17 4 3 5 0
10 -8 10 -8 0 -18 7 -21 16 -3 8 -11 12 -16 9 -14 -8 -11 89 3 107 6 9 7 8 3
-4 -3 -10 -1 -20 5 -23 5 -4 9 -3 8 2 -1 4 -1 26 0 47 1 38 2 39 17 20 8 -10
13 -14 10 -7 -9 17 4 44 18 36 6 -4 5 1 -3 10 -7 9 -18 14 -25 10 -6 -4 -4 2
4 12 13 17 13 18 0 13 -11 -4 -16 0 -17 13 -1 11 5 19 13 19 13 0 20 44 15 88
-1 6 6 12 15 12 10 0 14 5 11 15 -4 8 -2 17 3 20 6 4 7 17 4 31 -5 18 -2 24
10 24 11 0 16 10 17 30 3 59 4 68 11 76 4 3 6 -3 3 -14 -2 -12 0 -24 4 -27 5
-2 8 3 8 13 0 63 4 81 19 84 9 2 18 14 20 28 4 40 8 54 22 68 11 13 16 53 14
112 -1 19 1 21 8 10 5 -8 6 -19 3 -25 -4 -5 -2 -6 3 -2 5 5 10 17 10 28 1 10
2 28 3 40 0 11 5 18 10 14 5 -3 12 -1 15 4 4 5 1 13 -5 17 -8 5 -9 3 -4 -7 5
-8 4 -11 0 -6 -5 4 -9 16 -10 27 -1 15 1 17 12 9 13 -11 16 3 16 73 0 10 4 15
8 12 5 -3 7 -9 4 -14 -3 -5 -2 -11 2 -13 5 -3 9 8 10 25 0 17 7 34 14 39 10 6
11 9 2 9 -7 0 -13 5 -13 11 0 5 5 7 11 4 6 -4 13 2 16 13 3 11 10 23 17 25 6
3 13 22 14 43 2 21 8 42 14 45 12 7 16 21 20 72 2 18 8 27 20 27 21 0 24 16 6
23 -10 4 -10 6 0 6 6 1 12 8 12 16 0 8 7 15 15 15 9 0 15 6 14 13 -4 32 2 77
11 77 5 0 7 -8 3 -17 -3 -10 -3 -15 1 -12 8 8 16 44 18 87 1 18 8 36 16 41 7
4 15 20 15 34 1 15 8 29 15 32 6 2 12 18 12 36 0 22 4 30 14 26 10 -4 13 2 12
24 -2 20 2 29 13 29 9 0 12 3 6 8 -15 11 -17 32 -2 29 7 -1 13 11 15 28 2 16
9 33 15 37 12 7 14 12 16 51 0 13 8 32 17 43 8 10 13 13 9 7 -3 -7 -1 -13 4
-13 9 0 17 55 12 83 -1 5 3 6 9 2 6 -3 8 -11 5 -16 -4 -5 -2 -9 3 -9 5 0 10
11 10 25 0 13 -4 22 -9 19 -5 -3 -9 -1 -9 5 0 5 10 13 21 16 12 4 18 10 13 14
-15 10 -10 35 9 49 9 7 15 17 12 22 -3 4 0 10 7 12 7 3 13 18 14 34 1 18 6 28
14 26 10 -2 10 1 -1 14 -12 16 -12 17 3 11 15 -5 18 0 20 36 0 23 1 48 1 55
-1 10 2 10 14 1 8 -7 13 -8 12 -3 -5 29 2 55 14 48 8 -5 7 -2 -2 9 -8 10 -11
21 -7 24 4 4 12 1 17 -7 8 -12 10 -11 8 5 -3 38 1 55 12 52 7 -1 13 16 16 43
2 25 4 50 5 57 1 6 10 10 20 8 14 -3 18 2 18 23 0 15 5 34 11 42 9 12 10 11 4
-5 -4 -13 -3 -17 4 -10 5 6 11 29 12 51 2 33 6 41 18 36 14 -5 14 -4 1 13 -9
11 -10 16 -2 11 8 -5 12 1 12 18 0 15 6 26 13 26 7 0 14 14 15 31 3 38 10 51
23 44 5 -4 9 8 9 24 0 18 5 30 11 28 11 -2 16 14 21 66 1 15 8 27 15 27 7 0
13 5 13 10 0 6 -5 10 -10 10 -6 0 -5 6 2 14 7 7 20 11 28 8 9 -3 7 2 -5 12
-11 10 -14 15 -7 11 16 -8 30 30 26 69 -3 22 -1 27 5 16 6 -8 8 -17 5 -21 -2
-4 1 -11 8 -15 7 -4 10 -4 6 1 -4 4 -2 15 5 23 9 13 9 14 0 8 -7 -4 -13 -2
-13 3 0 6 5 11 10 11 6 0 10 14 10 31 0 17 4 28 10 24 10 -6 50 73 50 100 0
10 5 13 13 9 8 -5 8 -2 -2 9 -12 15 -11 17 3 17 15 0 21 24 18 75 -1 17 0 16
13 -5 l14 -25 -3 30 c-4 33 12 87 23 81 4 -3 8 5 8 16 1 12 8 25 15 29 10 7
10 9 0 9 -7 0 2 14 20 32 18 18 25 29 15 25 -11 -4 -17 -2 -17 8 0 8 5 14 12
12 7 -1 15 13 19 33 3 19 7 29 8 22 0 -7 5 -11 10 -8 5 3 9 87 10 186 l2 180
-5745 0 c-4038 0 -5746 -3 -5746 -11 0 -5 -4 -7 -10 -4 -5 3 -10 1 -10 -4 0
-6 4 -11 8 -11 14 0 8 -53 -6 -58 -15 -5 -16 10 -1 25 8 8 8 13 0 17 -6 4 -12
6 -12 4 -3 -8 -8 -80 -9 -150 -2 -43 -7 -78 -11 -78 -5 0 -9 -5 -9 -11 0 -5 6
-7 13 -4 6 4 5 0 -4 -7 -14 -12 -17 -35 -15 -151 1 -103 4 -140 14 -146 8 -5
13 -17 12 -27 -4 -38 0 -79 8 -67 4 6 19 10 35 10 23 -2 25 -4 12 -13 -17 -13
-20 -12 83 -16 33 -1 52 -7 52 -14 0 -7 14 -14 32 -16 l31 -3 0 -98 c0 -86 2
-97 16 -93 14 5 14 4 -1 -7 -17 -13 -20 -60 -5 -85 5 -6 4 -12 -1 -12 -8 0
-10 -40 -2 -47 1 -2 3 -8 4 -13 0 -6 8 -15 16 -20 13 -9 13 -11 0 -20 -10 -6
-11 -10 -3 -10 10 0 12 -45 11 -192 0 -106 -3 -196 -5 -201 -3 -4 -9 -5 -14
-1 -6 3 -6 10 -1 17 15 20 9 90 -8 94 -13 4 -13 3 0 -6 9 -7 11 -14 5 -18 -6
-5 -10 -29 -10 -55 -1 -42 4 -52 25 -50 3 0 7 -9 7 -21 2 -20 1 -20 -8 -4 -12
21 -26 22 -26 2 0 -8 4 -15 9 -15 4 0 8 -5 8 -11 0 -5 -4 -8 -9 -5 -5 3 -9
-27 -9 -67 0 -106 0 -107 -17 -101 -10 4 -15 0 -15 -11 0 -9 -5 -13 -11 -10
-6 4 -13 -2 -16 -14 -5 -19 -27 -27 -56 -22 -5 1 -6 -3 -2 -9 3 -6 11 -7 17
-4 7 4 8 2 4 -5 -4 -6 -11 -9 -16 -6 -5 3 -11 1 -15 -5 -4 -6 -10 -8 -15 -5
-4 3 -10 -5 -13 -16 -3 -12 -10 -18 -16 -14 -7 3 -11 -2 -11 -14 0 -12 -5 -20
-12 -18 -6 1 -14 -9 -18 -23 -4 -16 -12 -24 -23 -22 -11 2 -17 -4 -17 -17 0
-11 -6 -24 -12 -28 -7 -4 -20 -17 -28 -27 -12 -16 -12 -18 -1 -11 11 6 13 4 8
-9 -4 -10 -7 -21 -7 -24 0 -4 -4 -1 -9 6 -5 8 -9 -17 -10 -64 -1 -49 2 -80 10
-84 6 -4 12 -21 14 -38 2 -24 -1 -29 -14 -25 -13 4 -13 2 2 -10 15 -12 17 -30
15 -130 -3 -116 -5 -129 -13 -87 -7 37 -13 34 -12 -7 1 -21 7 -41 12 -45 6 -5
5 -8 -2 -8 -7 0 -13 -11 -13 -25 0 -14 5 -25 11 -25 5 0 7 6 3 13 -4 6 -4 9 1
5 13 -12 16 -88 4 -85 -6 1 -14 -4 -17 -12 -3 -9 0 -11 8 -6 10 6 11 4 4 -6
-5 -8 -9 -27 -10 -43 0 -26 1 -27 13 -10 10 14 13 15 13 3 0 -8 -5 -20 -12
-27 -7 -7 -8 -12 -2 -12 8 0 14 -21 17 -67 0 -7 6 -13 14 -13 8 0 13 -12 13
-30 0 -24 4 -30 21 -30 19 0 20 -2 8 -17 -7 -10 -10 -15 -5 -11 5 4 18 2 29
-4 20 -10 20 -11 1 -26 -15 -12 -16 -14 -2 -9 10 3 20 2 23 -4 4 -5 11 -7 16
-4 5 4 9 -1 9 -9 0 -9 7 -17 15 -17 28 -3 31 -4 48 -19 39 -35 49 -41 76 -43
21 -1 27 -5 19 -14 -7 -8 -4 -12 9 -12 40 -1 53 -5 53 -16 0 -9 24 -15 77 -18
7 0 12 -3 11 -6 -2 -22 4 -30 20 -24 14 5 14 3 -3 -11 -17 -15 -17 -17 -2 -12
20 6 23 -14 4 -33 -9 -11 -9 -13 1 -7 15 9 16 -6 1 -21 -8 -8 -8 -13 0 -17 16
-11 13 -36 -3 -30 -10 4 -14 0 -12 -12 2 -10 8 -20 14 -22 7 -2 12 -14 12 -28
0 -18 -4 -22 -17 -18 -15 5 -15 3 1 -10 15 -12 16 -16 5 -16 -9 0 -10 -3 -3
-8 14 -8 15 -62 2 -62 -5 0 -7 4 -3 9 3 5 1 12 -3 15 -5 3 -9 -17 -8 -44 0
-27 4 -46 8 -44 5 3 6 10 3 15 -4 5 -2 9 2 9 14 0 15 -112 2 -121 -18 -10 -20
-59 -3 -59 8 0 14 -7 14 -15 0 -18 -16 -20 -24 -2 -2 6 -4 2 -2 -10 1 -12 6
-26 11 -30 4 -5 5 -2 1 5 -4 6 -2 12 4 12 7 0 10 -6 8 -12 -3 -7 -11 -13 -19
-13 -8 0 -13 -9 -11 -20 2 -16 1 -17 -7 -6 -10 16 -45 25 -35 10 3 -5 11 -6
17 -3 7 4 8 3 4 -1 -10 -12 -39 -16 -32 -4 3 4 -3 17 -15 29 -15 15 -17 20 -5
20 8 0 15 9 15 20 0 11 -7 20 -15 20 -10 0 -15 10 -15 30 0 22 -5 30 -17 30
-15 0 -16 2 -3 10 9 6 10 10 3 10 -6 0 -14 14 -18 30 -4 17 -11 30 -16 30 -6
0 -7 -4 -4 -10 3 -5 1 -18 -4 -27 -10 -17 -11 -16 -9 2 3 49 -3 75 -17 75 -8
0 -15 5 -15 11 0 5 5 7 11 4 6 -4 5 2 -2 14 -10 14 -15 17 -21 8 -4 -7 -8 -7
-8 -1 0 5 5 15 12 22 6 6 8 15 4 19 -4 4 -12 1 -17 -7 -8 -12 -10 -11 -8 5 3
36 -1 55 -11 55 -5 0 -7 -8 -3 -17 3 -10 3 -15 -2 -11 -4 4 -9 20 -10 35 -1
18 -7 27 -15 25 -11 -2 -10 1 1 14 12 16 12 17 -3 11 -23 -8 -23 2 0 19 16 13
16 14 0 8 -13 -4 -18 -1 -18 10 0 9 -7 19 -15 22 -8 4 -15 15 -15 26 0 12 -4
17 -12 12 -10 -6 -10 -4 -1 7 18 18 16 29 -3 29 -10 0 -14 6 -10 15 3 8 1 15
-4 15 -5 0 -7 7 -4 15 4 9 0 15 -10 15 -11 0 -16 9 -16 30 0 23 -4 30 -20 30
-16 0 -20 7 -20 30 0 19 -5 30 -14 30 -7 0 -13 8 -13 18 0 41 -4 52 -19 52 -9
0 -14 6 -11 13 7 18 -13 53 -22 38 -7 -11 -13 32 -12 82 0 9 -7 17 -15 17 -9
0 -14 7 -12 18 2 10 -2 16 -10 14 -8 -1 -11 2 -8 7 4 5 3 11 -1 14 -5 2 -2 2
4 1 8 -2 12 6 11 21 -2 15 -9 25 -18 25 -13 0 -13 1 0 10 10 6 11 10 3 10 -7
0 -13 7 -13 16 0 9 -5 12 -12 8 -7 -5 -8 -3 -2 7 16 26 14 46 -2 24 -11 -14
-15 -15 -14 -5 5 37 0 61 -12 54 -10 -6 -10 -4 0 7 16 17 16 34 -1 21 -14 -12
-17 0 -20 64 -1 29 -24 46 -24 18 0 -7 5 -10 10 -7 6 4 7 1 3 -6 -15 -23 -23
-5 -25 54 -1 24 -6 35 -16 35 -14 0 -21 36 -16 78 1 6 -3 12 -9 12 -6 0 -9 -4
-5 -9 3 -5 2 -12 -3 -15 -9 -5 -10 -3 -13 52 -1 19 -7 32 -16 32 -11 0 -20 58
-14 93 1 5 -3 6 -9 2 -6 -3 -8 -10 -5 -15 3 -5 2 -11 -2 -13 -5 -3 -9 11 -10
31 -2 51 -8 80 -18 89 -4 5 -5 3 -1 -4 3 -6 2 -14 -2 -17 -5 -3 -9 5 -9 17 -1
12 -1 33 -2 47 -2 23 -3 23 -10 5 -7 -16 -10 -11 -15 25 -4 25 -8 55 -9 67 0
12 -4 20 -8 17 -4 -2 -6 -15 -4 -29 1 -14 0 -23 -4 -19 -3 3 -7 22 -8 42 -4
83 -6 102 -14 102 -4 0 -11 -5 -15 -12 -4 -6 -3 -8 3 -5 5 3 10 0 10 -7 0 -7
-6 -13 -12 -13 -7 0 -11 12 -10 29 2 16 -4 36 -13 44 -14 14 -18 29 -21 81 0
12 -8 28 -16 37 -8 8 -15 26 -15 40 0 15 -6 26 -14 26 -7 0 -16 14 -20 31 -3
17 -9 28 -14 25 -4 -2 -8 3 -9 12 -2 59 -8 90 -15 86 -5 -3 -5 -11 -2 -17 4
-7 3 -8 -1 -4 -9 8 -13 23 -17 65 -1 12 -8 22 -16 22 -7 0 -12 6 -11 13 4 30
-2 47 -17 47 -10 0 -14 6 -10 15 3 8 1 15 -5 15 -5 0 -9 8 -7 17 2 10 -2 18
-9 18 -17 0 -22 8 -25 42 -1 23 -6 29 -18 25 -13 -5 -13 -4 0 13 9 11 10 16 3
11 -9 -5 -13 0 -13 14 0 12 -4 18 -10 15 -6 -3 -11 -3 -11 2 -1 4 -3 17 -5 28
-2 11 -4 30 -6 43 -1 12 -8 22 -16 22 -7 0 -11 4 -7 9 3 5 1 12 -5 16 -6 4 -7
11 -4 17 5 8 1 9 -12 5 -18 -7 -18 -7 0 8 17 13 18 15 3 15 -9 0 -17 4 -17 10
0 5 6 8 13 6 6 -1 8 -1 4 2 -5 2 -12 15 -18 29 -5 13 -13 22 -18 19 -5 -3 -9
6 -9 20 0 15 -6 30 -13 35 -8 4 -15 16 -16 26 -1 10 -3 28 -5 41 -1 12 -8 22
-15 22 -7 0 -13 4 -13 10 0 5 8 7 18 3 16 -5 16 -5 -1 8 -10 8 -19 24 -20 36
-1 17 -5 20 -19 12 -10 -6 -18 -6 -17 -2 4 25 -2 43 -13 37 -7 -5 -8 -3 -3 7
12 18 14 49 3 43 -4 -3 -9 -13 -9 -22 -1 -9 -5 1 -8 23 -4 24 -11 39 -19 37
-6 -1 -12 3 -12 9 0 7 -8 18 -17 25 -17 13 -17 14 0 8 9 -3 17 -1 17 5 0 6 -7
11 -16 11 -11 0 -15 6 -11 20 3 11 1 20 -4 20 -4 0 -6 6 -3 14 3 8 0 17 -7 22
-7 4 -10 3 -5 -4 3 -6 3 -13 -2 -16 -7 -4 -12 17 -15 62 0 6 -5 12 -11 12 -10
0 -15 20 -19 67 0 7 -4 10 -9 7 -5 -3 -6 -15 -3 -27 5 -19 5 -20 -5 -5 -6 10
-10 24 -9 30 4 31 -2 48 -16 48 -13 0 -20 28 -17 61 1 3 -6 6 -13 6 -10 0 -12
-4 -5 -12 7 -8 6 -12 -3 -12 -7 0 -14 11 -15 25 -3 34 -13 47 -23 31 -6 -9 -9
-1 -10 26 -1 22 -1 45 0 50 1 6 -6 1 -15 -10 l-16 -20 3 20 c2 11 -1 31 -5 44
-6 18 -10 21 -17 10 -6 -10 -9 -7 -10 11 -1 14 -1 29 0 34 1 5 -5 4 -13 -4
-11 -8 -16 -9 -16 -1 0 8 -280 11 -1050 11 l-1050 0 0 -2752z m3470 2438 c0
-3 -4 -8 -10 -11 -5 -3 -10 -1 -10 4 0 6 5 11 10 11 6 0 10 -2 10 -4z m-6
-212 c3 -8 2 -12 -4 -9 -6 3 -10 10 -10 16 0 14 7 11 14 -7z m6 -39 c0 -8 -4
-15 -8 -15 -5 0 -9 7 -9 15 0 8 4 15 9 15 4 0 8 -7 8 -15z m225 -153 c-3 -3
-11 0 -18 7 -9 10 -8 11 6 5 10 -3 15 -9 12 -12z m11115 -22 c0 -5 -5 -10 -11
-10 -5 0 -7 5 -4 10 3 6 8 10 11 10 2 0 4 -4 4 -10z m-11063 -144 c-3 -8 -2
-17 4 -20 5 -2 4 -3 -2 -2 -15 3 -21 36 -7 36 6 0 8 -6 5 -14z m-1157 -56 c0
-5 -2 -10 -4 -10 -3 0 -8 5 -11 10 -3 6 -1 10 4 10 6 0 11 -4 11 -10z m1166
-80 c0 -46 -4 -80 -10 -80 -5 0 -6 3 -3 7 4 3 2 12 -4 19 -7 9 -7 19 0 32 6
11 7 22 4 26 -12 12 -11 61 1 68 6 4 11 8 11 8 0 0 0 -36 1 -80z m10954 60 c0
-5 -5 -10 -11 -10 -5 0 -7 5 -4 10 3 6 8 10 11 10 2 0 4 -4 4 -10z m-63 -165
c0 -8 -4 -12 -9 -9 -4 3 -8 9 -8 15 0 5 4 9 8 9 5 0 9 -7 9 -15z m-193 -441
c3 -8 2 -12 -4 -9 -6 3 -10 10 -10 16 0 14 7 11 14 -7z m-11529 -124 c3 -5 1
-10 -4 -10 -6 0 -11 5 -11 10 0 6 2 10 4 10 3 0 8 -4 11 -10z m11445 -90 c0
-5 -5 -10 -11 -10 -5 0 -7 5 -4 10 3 6 8 10 11 10 2 0 4 -4 4 -10z m-38 -92
c-7 -7 -12 -8 -12 -2 0 14 12 26 19 19 2 -3 -1 -11 -7 -17z m-127 -308 c3 -5
1 -10 -4 -10 -6 0 -11 5 -11 10 0 6 2 10 4 10 3 0 8 -4 11 -10z m-178 -465 c0
-8 -4 -15 -9 -15 -10 0 -11 14 -1 23 9 10 10 9 10 -8z m-102 -255 c3 -5 1 -10
-4 -10 -6 0 -11 5 -11 10 0 6 2 10 4 10 3 0 8 -4 11 -10z m-153 -412 c-7 -7
-12 -8 -12 -2 0 14 12 26 19 19 2 -3 -1 -11 -7 -17z m-28 -86 c3 -5 -1 -9 -9
-9 -8 0 -12 4 -9 9 3 4 7 8 9 8 2 0 6 -4 9 -8z m-9834 -302 c0 -5 -2 -10 -4
-10 -3 0 -8 5 -11 10 -3 6 -1 10 4 10 6 0 11 -4 11 -10z m9895 -590 c3 -5 1
-10 -4 -10 -6 0 -11 5 -11 10 0 6 2 10 4 10 3 0 8 -4 11 -10z m65 -84 c0 -3
-4 -8 -10 -11 -5 -3 -10 -1 -10 4 0 6 5 11 10 11 6 0 10 -2 10 -4z m280 -446
c0 -5 -2 -10 -4 -10 -3 0 -8 5 -11 10 -3 6 -1 10 4 10 6 0 11 -4 11 -10z m53
-95 c4 -8 3 -16 -1 -19 -4 -3 -9 4 -9 15 -2 23 3 25 10 4z m7 -425 c0 -5 -2
-10 -4 -10 -3 0 -8 5 -11 10 -3 6 -1 10 4 10 6 0 11 -4 11 -10z m-13640 -780
c0 -5 -2 -10 -4 -10 -3 0 -8 5 -11 10 -3 6 -1 10 4 10 6 0 11 -4 11 -10z m440
-442 c0 -4 -4 -8 -9 -8 -6 0 -12 4 -15 8 -3 5 1 9 9 9 8 0 15 -4 15 -9z m395
-368 c3 -5 1 -10 -4 -10 -6 0 -11 5 -11 10 0 6 2 10 4 10 3 0 8 -4 11 -10z
m1329 -879 c-9 -9 -34 -9 -34 -1 0 5 9 8 20 7 10 -1 17 -3 14 -6z m291 -31 c3
-5 1 -10 -4 -10 -6 0 -11 5 -11 10 0 6 2 10 4 10 3 0 8 -4 11 -10z m345 6 c0
-3 -4 -8 -10 -11 -5 -3 -10 -1 -10 4 0 6 5 11 10 11 6 0 10 -2 10 -4z m10
-966 c0 -5 -5 -10 -11 -10 -5 0 -7 5 -4 10 3 6 8 10 11 10 2 0 4 -4 4 -10z
m8487 -125 c-4 -31 -15 -43 -12 -13 4 35 5 38 10 38 3 0 4 -11 2 -25z m100
-41 c0 -20 -3 -31 -6 -25 -6 9 -7 43 -2 59 4 10 7 -4 8 -34z m41 -159 c-3 -3
-9 2 -12 12 -6 14 -5 15 5 6 7 -7 10 -15 7 -18z m-202 -70 c1 -8 -2 -15 -6
-15 -5 0 -8 9 -7 20 1 21 10 18 13 -5z m-8052 -367 c-3 -4 -9 -8 -15 -8 -5 0
-9 4 -9 8 0 5 7 9 15 9 8 0 12 -4 9 -9z m7831 -118 c3 -5 1 -10 -4 -10 -6 0
-11 5 -11 10 0 6 2 10 4 10 3 0 8 -4 11 -10z m-7760 -39 c-9 -8 -36 -10 -30
-2 2 4 11 8 20 8 8 0 13 -3 10 -6z m8302 -46 c0 -8 -4 -15 -9 -15 -10 0 -11
14 -1 23 9 10 10 9 10 -8z m3 -35 c0 -5 -2 -10 -4 -10 -3 0 -8 5 -11 10 -3 6
-1 10 4 10 6 0 11 -4 11 -10z m-645 -40 c-3 -5 -1 -10 6 -10 7 0 10 -3 6 -6
-9 -9 -28 6 -22 17 4 5 8 9 11 9 3 0 2 -4 -1 -10z m-8421 -39 c4 -5 -3 -7 -14
-4 -23 6 -26 13 -6 13 8 0 17 -4 20 -9z m8862 -225 c0 -14 -3 -23 -7 -20 -6 3
-6 22 0 42 3 10 7 -2 7 -22z m-9138 -61 c-3 -3 -9 2 -12 12 -6 14 -5 15 5 6 7
-7 10 -15 7 -18z m9109 -87 c-3 -8 -6 -5 -6 6 -1 11 2 17 5 13 3 -3 4 -12 1
-19z m-9110 -3 c0 -8 -4 -12 -9 -9 -5 3 -6 10 -3 15 9 13 12 11 12 -6z m8963
-650 c0 -2 -6 -5 -13 -8 -8 -3 -14 1 -14 8 0 7 6 11 14 8 7 -3 13 -6 13 -8z
m-8840 -155 c0 -5 -5 -10 -11 -10 -5 0 -7 5 -4 10 3 6 8 10 11 10 2 0 4 -4 4
-10z m9525 -169 c3 -5 2 -12 -3 -15 -5 -3 -9 1 -9 9 0 17 3 19 12 6z m70 -310
c-6 -5 -25 10 -25 20 0 5 6 4 14 -3 8 -7 12 -15 11 -17z m-575 -641 c0 -5 -2
-10 -4 -10 -3 0 -8 5 -11 10 -3 6 -1 10 4 10 6 0 11 -4 11 -10z m755 -201 c1
-11 -2 -22 -7 -25 -5 -3 -7 8 -6 25 2 33 11 33 13 0z m32 -104 c0 -8 -4 -12
-9 -9 -5 3 -6 10 -3 15 9 13 12 11 12 -6z m-2 -35 c3 -5 1 -10 -4 -10 -6 0
-11 5 -11 10 0 6 2 10 4 10 3 0 8 -4 11 -10z m34 -126 c4 3 7 -4 7 -15 0 -27
-19 -18 -22 12 -1 13 0 18 2 11 3 -6 9 -10 13 -8z m41 -164 c0 -5 -2 -10 -4
-10 -3 0 -8 5 -11 10 -3 6 -1 10 4 10 6 0 11 -4 11 -10z m57 -185 c0 -8 -4
-15 -9 -15 -10 0 -11 14 -1 23 9 10 10 9 10 -8z m-11202 -113 c-3 -3 -11 0
-18 7 -9 10 -8 11 6 5 10 -3 15 -9 12 -12z m11109 -114 c-3 -4 -9 -8 -15 -8
-5 0 -9 4 -9 8 0 5 7 9 15 9 8 0 12 -4 9 -9z m-10754 -244 c0 -8 -19 -13 -24
-6 -3 5 1 9 9 9 8 0 15 -2 15 -3z m113 -637 c2 -20 0 -34 -4 -31 -4 2 -7 20
-7 40 0 44 8 39 11 -9z m10207 -76 c0 -6 -4 -12 -8 -15 -5 -3 -9 1 -9 9 0 8 4
15 9 15 4 0 8 -4 8 -9z m-70 -77 c0 -8 -19 -13 -24 -6 -3 5 1 9 9 9 8 0 15 -2
15 -3z m30 -64 c0 -5 -5 -10 -11 -10 -5 0 -7 5 -4 10 3 6 8 10 11 10 2 0 4 -4
4 -10z"/>
<path d="M3600 14286 c0 -2 7 -7 16 -10 8 -3 12 -2 9 4 -6 10 -25 14 -25 6z"/>
<path d="M2550 14160 c0 -5 5 -10 11 -10 5 0 7 5 4 10 -3 6 -8 10 -11 10 -2 0
-4 -4 -4 -10z"/>
<path d="M2670 13880 c0 -5 5 -10 11 -10 5 0 7 5 4 10 -3 6 -8 10 -11 10 -2 0
-4 -4 -4 -10z"/>
<path d="M2735 13760 c-3 -5 -1 -10 4 -10 6 0 11 5 11 10 0 6 -2 10 -4 10 -3
0 -8 -4 -11 -10z"/>
<path d="M14393 13255 c0 -8 4 -12 9 -9 5 3 6 10 3 15 -9 13 -12 11 -12 -6z"/>
<path d="M14311 13054 c0 -11 3 -14 6 -6 3 7 2 16 -1 19 -3 4 -6 -2 -5 -13z"/>
<path d="M3050 13011 c0 -6 4 -13 10 -16 6 -3 7 1 4 9 -7 18 -14 21 -14 7z"/>
<path d="M3440 12999 c0 -5 5 -7 10 -4 6 3 10 8 10 11 0 2 -4 4 -10 4 -5 0
-10 -5 -10 -11z"/>
<path d="M3414 12746 c1 -8 5 -18 8 -22 4 -3 5 1 4 10 -1 8 -5 18 -8 22 -4 3
-5 -1 -4 -10z"/>
<path d="M14085 12501 c-3 -5 -2 -12 3 -15 5 -3 9 1 9 9 0 17 -3 19 -12 6z"/>
<path d="M3846 11812 c-3 -5 1 -9 9 -9 8 0 12 4 9 9 -3 4 -7 8 -9 8 -2 0 -6
-4 -9 -8z"/>
<path d="M3580 11720 c0 -5 5 -10 11 -10 5 0 7 5 4 10 -3 6 -8 10 -11 10 -2 0
-4 -4 -4 -10z"/>
<path d="M13675 11400 c3 -5 8 -10 11 -10 2 0 4 5 4 10 0 6 -5 10 -11 10 -5 0
-7 -4 -4 -10z"/>
<path d="M13646 11307 c3 -10 9 -15 12 -12 3 3 0 11 -7 18 -10 9 -11 8 -5 -6z"/>
<path d="M14837 8669 c4 -13 8 -18 11 -10 2 7 -1 18 -6 23 -8 8 -9 4 -5 -13z"/>
<path d="M1010 8399 c0 -5 5 -7 10 -4 6 3 10 8 10 11 0 2 -4 4 -10 4 -5 0 -10
-5 -10 -11z"/>
<path d="M2510 7245 c0 -8 2 -15 4 -15 2 0 6 7 10 15 3 8 1 15 -4 15 -6 0 -10
-7 -10 -15z"/>
<path d="M3356 6447 c3 -10 9 -15 12 -12 3 3 0 11 -7 18 -10 9 -11 8 -5 -6z"/>
<path d="M3353 6405 c0 -8 4 -15 9 -15 4 0 8 4 8 9 0 6 -4 12 -8 15 -5 3 -9
-1 -9 -9z"/>
<path d="M11894 6152 c4 -3 14 -7 22 -8 9 -1 13 0 10 4 -4 3 -14 7 -22 8 -9 1
-13 0 -10 -4z"/>
<path d="M3356 6097 c3 -10 9 -15 12 -12 3 3 0 11 -7 18 -10 9 -11 8 -5 -6z"/>
<path d="M11833 5910 c1 -21 10 -18 13 5 1 8 -2 15 -6 15 -5 0 -8 -9 -7 -20z"/>
<path d="M11980 5811 c0 -6 4 -13 10 -16 6 -3 7 1 4 9 -7 18 -14 21 -14 7z"/>
<path d="M11773 5685 c0 -8 4 -15 9 -15 4 0 8 4 8 9 0 6 -4 12 -8 15 -5 3 -9
-1 -9 -9z"/>
<path d="M12043 5525 c0 -8 4 -12 9 -9 5 3 6 10 3 15 -9 13 -12 11 -12 -6z"/>
<path d="M12073 5355 c0 -8 4 -12 9 -9 4 3 8 9 8 15 0 5 -4 9 -8 9 -5 0 -9 -7
-9 -15z"/>
<path d="M11860 4561 c0 -6 4 -13 10 -16 6 -3 7 1 4 9 -7 18 -14 21 -14 7z"/>
<path d="M2794 4535 c0 -28 8 -24 13 5 2 11 -1 20 -5 20 -4 0 -8 -11 -8 -25z"/>
<path d="M11770 4171 c0 -6 4 -13 10 -16 6 -3 7 1 4 9 -7 18 -14 21 -14 7z"/>
<path d="M11735 4051 c-3 -5 -2 -12 3 -15 5 -3 9 1 9 9 0 17 -3 19 -12 6z"/>
<path d="M12350 4030 c0 -5 5 -10 11 -10 5 0 7 5 4 10 -3 6 -8 10 -11 10 -2 0
-4 -4 -4 -10z"/>
<path d="M11675 3800 c3 -5 8 -10 11 -10 2 0 4 5 4 10 0 6 -5 10 -11 10 -5 0
-7 -4 -4 -10z"/>
<path d="M2915 3620 c3 -5 8 -10 11 -10 2 0 4 5 4 10 0 6 -5 10 -11 10 -5 0
-7 -4 -4 -10z"/>
<path d="M12445 3560 c3 -5 8 -10 11 -10 2 0 4 5 4 10 0 6 -5 10 -11 10 -5 0
-7 -4 -4 -10z"/>
<path d="M2910 3515 c0 -8 2 -15 4 -15 2 0 6 7 10 15 3 8 1 15 -4 15 -6 0 -10
-7 -10 -15z"/>
<path d="M12545 3149 c-4 -6 -5 -12 -2 -15 2 -3 7 2 10 11 7 17 1 20 -8 4z"/>
<path d="M12635 2710 c-3 -5 -1 -10 4 -10 6 0 11 5 11 10 0 6 -2 10 -4 10 -3
0 -8 -4 -11 -10z"/>
<path d="M2765 2499 c-4 -6 -5 -12 -2 -15 2 -3 7 2 10 11 7 17 1 20 -8 4z"/>
<path d="M2790 2275 c0 -5 5 -17 10 -25 5 -8 10 -10 10 -5 0 6 -5 17 -10 25
-5 8 -10 11 -10 5z"/>
<path d="M2915 2180 c-3 -5 -1 -10 4 -10 6 0 11 5 11 10 0 6 -2 10 -4 10 -3 0
-8 -4 -11 -10z"/>
<path d="M1530 1940 c0 -5 5 -10 11 -10 5 0 7 5 4 10 -3 6 -8 10 -11 10 -2 0
-4 -4 -4 -10z"/>
<path d="M11890 1800 c0 -5 5 -10 11 -10 5 0 7 5 4 10 -3 6 -8 10 -11 10 -2 0
-4 -4 -4 -10z"/>
<path d="M1985 1600 c-8 -13 3 -30 18 -30 7 0 6 4 -3 10 -13 9 -13 11 0 20 9
6 10 10 3 10 -6 0 -15 -4 -18 -10z"/>
<path d="M11950 1600 c0 -5 5 -10 10 -10 6 0 10 5 10 10 0 6 -4 10 -10 10 -5
0 -10 -4 -10 -10z"/>
<path d="M2973 893 l-1 -38 13 30 c12 30 11 45 -4 45 -4 0 -8 -17 -8 -37z"/>
<path d="M12240 795 c-8 -9 -8 -15 -2 -15 12 0 26 19 19 26 -2 2 -10 -2 -17
-11z"/>
<path d="M2710 660 c0 -5 5 -10 11 -10 5 0 7 5 4 10 -3 6 -8 10 -11 10 -2 0
-4 -4 -4 -10z"/>
<path d="M12472 341 c4 -13 18 -16 19 -4 0 4 -5 9 -11 12 -7 2 -11 -2 -8 -8z"/>
<path d="M12395 320 c-3 -5 -1 -10 4 -10 6 0 11 5 11 10 0 6 -2 10 -4 10 -3 0
-8 -4 -11 -10z"/>
<path d="M12495 71 c-3 -5 -2 -12 3 -15 5 -3 9 1 9 9 0 17 -3 19 -12 6z"/>
</g>
</svg>
